<?xml version="1.0" encoding="UTF-8"?><svg id="Livello_2" xmlns="http://www.w3.org/2000/svg" viewBox="0 0 424.99 121.06"><defs><style>.cls-1{fill:#fcd64d;}.cls-2{fill:#1e1f22;}</style></defs><g id="Livello_1-2"><g><path class="cls-1" d="M93.24,64.22V0H0V93.24H111.89l-18.65-29.03Zm-18.82,10.21H18.82V18.82h55.6v55.6Z"/><g><path class="cls-2" d="M126.33,48.88l16.33,26.94,16.59-26.94h20.02l-28.29,44.36v26.26h-17.11v-26.26l-28.5-44.36h20.96Z"/><path class="cls-2" d="M178.44,102.55v-32.97h16.38v28.29c0,5.56,4.42,8.22,8.37,8.22s8.32-2.65,8.32-8.22v-28.29h16.38v49.92h-15.03l-.52-4.73c-3.54,4.47-9.57,6.29-15.44,6.29-9.41,0-18.46-6.6-18.46-18.51Z"/><path class="cls-2" d="M240.89,119.5v-49.92h15.03l.52,5.25c3.54-4.47,9.57-6.29,15.44-6.29,9.41,0,18.46,6.6,18.46,18.51v32.45h-16.38v-27.77c0-5.56-4.42-8.22-8.37-8.22s-8.32,2.65-8.32,8.22v27.77h-16.38Z"/><path class="cls-2" d="M310.63,45.25c5.3,0,9.05,3.64,9.05,9s-3.74,8.94-9.05,8.94-8.94-3.64-8.94-8.94,3.64-9,8.94-9Zm8.48,24.34v49.92h-16.38v-49.92h16.38Z"/><path class="cls-2" d="M333.51,119.5v-49.92h15.44l.52,6.81c2.34-4.94,7.28-7.85,13.05-7.85,1.98,0,4,.36,6.08,1.04l-.99,14.3c-2.08-.73-4.21-1.09-6.29-1.09-6.19,0-11.44,3.38-11.44,12.69v24.03h-16.38Z"/><path class="cls-2" d="M398.16,68.54c15.44,0,26.83,11.13,26.83,26s-11.39,26-26.83,26-26.83-11.13-26.83-26,11.39-26,26.83-26Zm0,37.08c6.24,0,10.61-4.73,10.61-11.08s-4.37-10.92-10.61-10.92-10.61,4.73-10.61,10.92,4.37,11.08,10.61,11.08Z"/></g></g></g></svg>