<?xml version="1.0" encoding="UTF-8"?><svg id="Livello_2" xmlns="http://www.w3.org/2000/svg" viewBox="0 0 660.48 188.15"><defs><style>.cls-1{fill:#fff;}.cls-2{fill:#fcd64d;}</style></defs><g id="Livello_1-2"><g><path class="cls-2" d="M144.91,99.8V0H0V144.91H173.89l-28.98-45.11Zm-29.25,15.86H29.25V29.25H115.66V115.66Z"/><g><path class="cls-1" d="M196.33,75.97l25.38,41.86,25.78-41.86h31.12l-43.96,68.94v40.81h-26.59v-40.81l-44.29-68.94h32.57Z"/><path class="cls-1" d="M277.31,159.38v-51.24h25.46v43.96c0,8.65,6.87,12.77,13.01,12.77s12.93-4.12,12.93-12.77v-43.96h25.46v77.58h-23.36l-.81-7.35c-5.5,6.95-14.87,9.78-24,9.78-14.63,0-28.69-10.26-28.69-28.77Z"/><path class="cls-1" d="M374.38,185.72V108.14h23.36l.81,8.16c5.5-6.95,14.87-9.78,24-9.78,14.63,0,28.69,10.26,28.69,28.77v50.43h-25.46v-43.16c0-8.65-6.87-12.77-13.01-12.77s-12.93,4.12-12.93,12.77v43.16h-25.46Z"/><path class="cls-1" d="M482.76,70.32c8.24,0,14.06,5.66,14.06,13.98s-5.82,13.9-14.06,13.9-13.9-5.66-13.9-13.9,5.66-13.98,13.9-13.98Zm13.17,37.82v77.58h-25.46V108.14h25.46Z"/><path class="cls-1" d="M518.32,185.72V108.14h24l.81,10.59c3.64-7.68,11.31-12.2,20.28-12.2,3.07,0,6.22,.57,9.46,1.62l-1.54,22.23c-3.23-1.13-6.55-1.7-9.78-1.7-9.62,0-17.78,5.25-17.78,19.72v37.34h-25.46Z"/><path class="cls-1" d="M618.78,106.52c24,0,41.7,17.29,41.7,40.41s-17.7,40.41-41.7,40.41-41.7-17.29-41.7-40.41,17.7-40.41,41.7-40.41Zm0,57.62c9.7,0,16.49-7.35,16.49-17.21s-6.79-16.97-16.49-16.97-16.49,7.35-16.49,16.97,6.79,17.21,16.49,17.21Z"/></g></g></g></svg>